<?xml version="1.0" encoding="UTF-8" standalone="no"?>
<!DOCTYPE svg PUBLIC "-//W3C//DTD SVG 1.1//EN" "http://www.w3.org/Graphics/SVG/1.1/DTD/svg11.dtd">
<svg xmlns="http://www.w3.org/2000/svg" version="1.1" viewBox="0.00 0.00 1448.00 1447.00">
<clipPath id="clipping-path-0">
<path d="
  M 0.00 0.00
  L 1448.00 0.00
  L 1448.00 1447.00
  L 0.00 1447.00
  L 0.00 0.00
  Z"/>
</clipPath>
<g stroke-width="2.00" fill="none" stroke-linecap="butt" clip-path="url(#clipping-path-0)">
<path stroke="#e18a8d" vector-effect="non-scaling-stroke" d="
  M 185.81 255.69
  L 183.67 254.41
  L 181.77 253.61
  L 179.99 253.24
  L 178.39 253.31
  L 176.70 253.88
  L 174.96 255.05
  L 173.11 256.86
  L 170.58 259.85
  L 169.54 261.12
  L 161.78 270.66
  L 154.18 280.33
  L 146.75 290.10
  L 139.49 299.99
  L 132.40 309.99
  L 125.48 320.10
  L 118.74 330.32
  L 112.17 340.64
  L 105.77 351.06
  L 99.56 361.58
  L 93.52 372.20
  L 87.66 382.92
  L 82.01 393.69
  L 76.54 404.54
  L 71.26 415.49
  L 66.16 426.52
  L 61.27 437.61
  L 56.56 448.78
  L 52.03 460.03
  L 47.70 471.36
  L 43.58 482.71
  L 39.65 494.14
  L 35.92 505.64
  L 32.38 517.21
  L 29.06 528.77
  L 25.93 540.40
  L 23.00 552.09
  L 20.27 563.83
  L 17.75 575.58
  L 15.43 587.37
  L 13.31 599.23
  L 11.39 611.13
  L 8.33 633.49
  L 5.97 655.88
  L 4.28 678.38
  L 3.29 700.88
  L 2.99 723.37
  L 3.38 745.83
  L 4.46 768.24
  L 6.23 790.60
  L 8.68 812.86
  L 11.83 835.03
  L 15.65 857.10
  L 20.16 879.04
  L 25.35 900.82
  L 31.22 922.44
  L 37.73 943.81
  L 44.92 965.00
  L 50.93 981.23
  L 57.34 997.34
  L 64.11 1013.23
  L 71.27 1028.99
  L 77.03 1040.97
  L 83.02 1052.84
  L 89.23 1064.59
  L 95.65 1076.23
  L 102.33 1087.79
  L 109.22 1099.23
  L 116.32 1110.54
  L 123.63 1121.72
  L 131.19 1132.82
  L 138.95 1143.78
  L 146.91 1154.60
  L 155.08 1165.26
  L 163.44 1175.78
  L 171.99 1186.14
  L 180.73 1196.34
  L 189.66 1206.38
  L 198.79 1216.27
  L 208.10 1226.00
  L 217.59 1235.55
  L 227.25 1244.92
  L 237.05 1254.08
  L 247.01 1263.05
  L 257.14 1271.84
  L 267.43 1280.44
  L 277.83 1288.82
  L 288.39 1297.00
  L 299.10 1304.98
  L 309.95 1312.76
  L 320.90 1320.31
  L 331.99 1327.64
  L 343.21 1334.77
  L 354.57 1341.68
  L 372.11 1351.81
  L 389.82 1361.42
  L 407.71 1370.49
  L 425.77 1379.03
  L 444.01 1387.05
  L 462.41 1394.53
  L 480.99 1401.48
  L 499.75 1407.91
  L 499.75 1407.91
  L 499.75 1407.91
  L 499.75 1407.91
  L 499.75 1407.91
  L 521.13 1414.52
  L 542.74 1420.46
  L 564.57 1425.72
  L 586.62 1430.31
  L 608.89 1434.22
  L 631.38 1437.46
  L 654.10 1440.02
  L 677.03 1441.90
  L 699.23 1443.04
  L 721.37 1443.49
  L 744.49 1443.22
  L 767.50 1442.21
  L 790.54 1440.44
  L 813.44 1437.95
  L 836.36 1434.69
  L 859.10 1430.71
  L 881.77 1425.99
  L 904.23 1420.55
  L 926.57 1414.37
  L 948.67 1407.48
  L 970.61 1399.87
  L 992.28 1391.56
  L 1013.68 1382.55
  L 1034.78 1372.87
  L 1055.55 1362.52
  L 1075.98 1351.52
  L 1096.05 1339.86
  L 1115.74 1327.57
  L 1135.03 1314.65
  L 1153.91 1301.11
  L 1172.34 1286.99
  L 1190.31 1272.27
  L 1207.76 1257.02
  L 1224.72 1241.21
  L 1241.13 1224.90
  L 1257.02 1208.05
  L 1272.34 1190.73
  L 1287.11 1172.89
  L 1301.24 1154.66
  L 1314.81 1135.94
  L 1327.74 1116.84
  L 1340.08 1097.27
  L 1348.47 1083.10
  L 1356.56 1068.70
  L 1363.70 1055.31
  L 1370.54 1041.79
  L 1377.13 1028.06
  L 1383.42 1014.22
  L 1389.42 1000.23
  L 1395.12 986.14
  L 1400.51 971.95
  L 1405.61 957.66
  L 1410.41 943.21
  L 1414.91 928.68
  L 1419.11 914.06
  L 1422.99 899.37
  L 1426.57 884.55
  L 1429.84 869.68
  L 1432.79 854.74
  L 1435.43 839.74
  L 1437.76 824.71
  L 1439.76 809.64
  L 1441.46 794.52
  L 1442.83 779.37
  L 1443.88 764.19
  L 1444.62 749.00
  L 1445.04 733.78
  L 1445.13 718.55
  L 1444.91 703.39
  L 1444.37 688.23
  L 1443.50 673.08
  L 1442.32 657.93
  L 1440.83 642.87
  L 1439.01 627.82
  L 1436.88 612.80
  L 1434.42 597.81
  L 1430.70 578.13
  L 1426.46 558.66
  L 1421.68 539.28
  L 1416.39 520.12
  L 1410.54 501.03
  L 1404.19 482.19
  L 1397.30 463.48
  L 1389.92 445.04
  L 1381.40 425.40
  L 1372.32 406.08
  L 1362.65 387.00
  L 1352.44 368.26
  L 1341.64 349.76
  L 1330.31 331.62
  L 1318.41 313.78
  L 1306.00 296.33
  L 1293.07 279.23
  L 1279.65 262.55
  L 1265.70 246.21
  L 1251.28 230.30
  L 1236.39 214.83
  L 1221.05 199.81
  L 1205.29 185.26
  L 1189.10 171.18
  L 1172.50 157.58
  L 1155.51 144.48
  L 1138.13 131.89
  L 1120.37 119.81
  L 1102.27 108.26
  L 1083.82 97.24
  L 1065.12 86.82
  L 1046.10 76.94
  L 1026.81 67.64
  L 1007.23 58.91
  L 987.45 50.78
  L 967.39 43.24
  L 947.20 36.32
  L 926.77 29.99
  L 906.20 24.29
  L 885.41 19.18
  L 865.76 14.96
  L 845.93 11.28
  L 826.05 8.16
  L 806.01 5.59
  L 786.00 3.60
  L 765.85 2.16
  L 745.70 1.28
  L 725.43 0.97
  L 723.66 1.13
  L 722.31 1.70
  L 721.45 2.53
  L 720.76 3.76
  L 719.01 8.46
  L 717.61 13.66
  L 716.56 19.38
  L 715.90 25.48
  L 715.63 32.02
  L 715.75 38.77
  L 716.27 45.70
  L 717.16 52.47
  L 718.19 56.83
  L 719.64 60.48
  L 720.38 61.70
  L 721.21 62.67
  L 722.04 63.25
  L 722.95 63.51
  L 723.00 63.51
  L 736.28 64.32
  L 749.48 65.37
  L 762.59 66.66
  L 775.61 68.18
  L 788.54 69.93
  L 801.38 71.93
  L 814.13 74.16
  L 826.80 76.62
  L 839.37 79.32
  L 851.86 82.26
  L 864.26 85.43
  L 876.57 88.84
  L 888.79 92.49
  L 900.92 96.37
  L 912.97 100.48
  L 924.92 104.84
  L 924.92 104.84
  L 924.92 104.84
  L 924.92 104.84
  L 924.92 104.84
  L 924.92 104.84
  L 945.87 113.12
  L 966.53 122.14
  L 986.92 131.90
  L 1007.03 142.40
  L 1026.86 153.64
  L 1046.42 165.62
  L 1065.70 178.33
  L 1084.70 191.79
  L 1101.11 204.24
  L 1117.11 217.24
  L 1132.78 230.83
  L 1148.01 244.93
  L 1162.84 259.58
  L 1177.21 274.71
  L 1191.10 290.30
  L 1204.48 306.32
  L 1217.36 322.78
  L 1229.71 339.63
  L 1241.51 356.86
  L 1252.75 374.45
  L 1263.39 392.34
  L 1273.43 410.54
  L 1282.83 428.95
  L 1291.61 447.64
  L 1300.38 468.06
  L 1308.42 488.72
  L 1312.29 499.49
  L 1315.97 510.32
  L 1319.45 521.20
  L 1322.74 532.13
  L 1325.84 543.15
  L 1328.75 554.22
  L 1331.45 565.34
  L 1333.96 576.49
  L 1336.27 587.70
  L 1338.39 598.95
  L 1340.30 610.23
  L 1342.01 621.54
  L 1343.53 632.88
  L 1344.84 644.24
  L 1345.95 655.62
  L 1346.86 667.03
  L 1347.58 678.45
  L 1348.09 689.89
  L 1348.39 701.34
  L 1348.50 712.80
  L 1348.41 724.27
  L 1348.11 735.74
  L 1347.61 747.21
  L 1346.91 758.67
  L 1346.01 770.12
  L 1344.90 781.55
  L 1343.60 792.98
  L 1342.09 804.39
  L 1340.39 815.73
  L 1338.48 827.06
  L 1336.38 838.37
  L 1334.07 849.66
  L 1331.56 860.92
  L 1328.85 872.10
  L 1325.92 883.30
  L 1322.78 894.43
  L 1319.46 905.46
  L 1315.94 916.42
  L 1312.19 927.38
  L 1308.26 938.26
  L 1304.11 949.11
  L 1299.76 959.86
  L 1295.23 970.51
  L 1290.51 981.07
  L 1285.58 991.60
  L 1280.46 1002.03
  L 1275.16 1012.35
  L 1269.69 1022.56
  L 1263.98 1032.75
  L 1258.10 1042.82
  L 1252.05 1052.78
  L 1245.82 1062.62
  L 1239.39 1072.38
  L 1232.79 1082.03
  L 1226.02 1091.55
  L 1219.08 1100.94
  L 1211.96 1110.24
  L 1204.67 1119.41
  L 1197.22 1128.45
  L 1189.62 1137.35
  L 1181.85 1146.11
  L 1173.94 1154.74
  L 1165.87 1163.22
  L 1157.66 1171.55
  L 1149.28 1179.76
  L 1140.76 1187.82
  L 1132.09 1195.72
  L 1123.29 1203.47
  L 1114.35 1211.07
  L 1105.27 1218.50
  L 1096.07 1225.78
  L 1086.73 1232.89
  L 1077.28 1239.83
  L 1067.70 1246.60
  L 1058.00 1253.21
  L 1048.18 1259.64
  L 1038.29 1265.87
  L 1028.28 1271.93
  L 1018.15 1277.81
  L 1007.92 1283.52
  L 997.64 1289.01
  L 987.25 1294.33
  L 976.76 1299.46
  L 966.18 1304.41
  L 955.55 1309.15
  L 944.82 1313.70
  L 934.01 1318.06
  L 923.10 1322.23
  L 912.20 1326.17
  L 901.22 1329.93
  L 890.15 1333.49
  L 879.01 1336.85
  L 867.82 1340.01
  L 856.55 1342.97
  L 845.31 1345.70
  L 834.00 1348.24
  L 817.53 1351.57
  L 801.08 1354.47
  L 784.56 1356.98
  L 768.08 1359.06
  L 751.49 1360.75
  L 734.95 1362.01
  L 718.36 1362.86
  L 701.83 1363.30
  L 685.26 1363.33
  L 668.76 1362.94
  L 652.25 1362.14
  L 635.82 1360.93
  L 619.36 1359.30
  L 603.00 1357.26
  L 586.65 1354.81
  L 570.42 1351.95
  L 549.91 1347.74
  L 529.61 1342.88
  L 509.42 1337.37
  L 489.47 1331.24
  L 469.65 1324.45
  L 450.09 1317.05
  L 430.72 1309.00
  L 411.66 1300.36
  L 392.86 1291.11
  L 374.38 1281.29
  L 356.16 1270.84
  L 338.30 1259.83
  L 320.81 1248.27
  L 303.70 1236.16
  L 286.99 1223.52
  L 270.70 1210.37
  L 254.86 1196.72
  L 239.45 1182.58
  L 224.50 1167.96
  L 210.02 1152.85
  L 196.05 1137.32
  L 182.57 1121.34
  L 169.66 1104.99
  L 157.27 1088.22
  L 145.46 1071.12
  L 134.18 1053.61
  L 123.51 1035.80
  L 113.39 1017.62
  L 103.91 999.21
  L 95.01 980.45
  L 86.74 961.48
  L 79.07 942.17
  L 73.66 927.35
  L 68.60 912.35
  L 63.93 897.27
  L 59.61 882.03
  L 55.69 866.75
  L 52.13 851.32
  L 48.96 835.83
  L 46.15 820.20
  L 43.73 804.54
  L 41.69 788.74
  L 40.02 772.91
  L 38.74 756.96
  L 37.84 741.04
  L 37.33 725.00
  L 37.19 708.96
  L 37.44 692.81
  L 37.97 679.04
  L 38.79 665.32
  L 39.93 651.55
  L 41.36 637.83
  L 43.09 624.17
  L 45.12 610.57
  L 47.46 596.94
  L 50.09 583.37
  L 53.03 569.83
  L 56.26 556.36
  L 59.78 542.97
  L 63.59 529.68
  L 67.71 516.41
  L 72.10 503.24
  L 76.79 490.17
  L 81.75 477.21
  L 87.01 464.29
  L 92.55 451.48
  L 98.37 438.80
  L 104.46 426.24
  L 110.82 413.80
  L 117.45 401.50
  L 124.34 389.33
  L 131.50 377.30
  L 138.93 365.40
  L 146.62 353.64
  L 154.56 342.04
  L 162.76 330.60
  L 171.17 319.35
  L 179.84 308.27
  L 188.74 297.37
  L 197.89 286.63
  L 199.29 284.70
  L 200.23 282.68
  L 200.87 279.76
  L 200.77 276.55
  L 199.92 273.09
  L 198.33 269.50
  L 195.94 265.69
  L 192.94 261.98
  L 189.41 258.49
  L 185.81 255.69"
/>
<path stroke="#a6a6a6" vector-effect="non-scaling-stroke" d="
  M 138.88 724.93
  L 140.08 746.19
  L 142.07 767.42
  L 144.82 788.40
  L 148.37 809.33
  L 152.68 830.02
  L 157.78 850.62
  L 163.65 870.97
  L 170.24 890.99
  L 175.95 906.57
  L 182.10 921.93
  L 188.72 937.15
  L 195.77 952.13
  L 203.29 966.95
  L 211.22 981.52
  L 219.61 995.90
  L 228.41 1010.01
  L 237.63 1023.89
  L 247.26 1037.48
  L 257.26 1050.76
  L 267.64 1063.74
  L 278.42 1076.44
  L 289.57 1088.81
  L 301.07 1100.85
  L 312.91 1112.55
  L 325.09 1123.90
  L 337.60 1134.89
  L 350.44 1145.52
  L 363.58 1155.77
  L 376.99 1165.61
  L 390.69 1175.06
  L 404.67 1184.11
  L 418.93 1192.76
  L 433.39 1200.96
  L 448.10 1208.74
  L 462.97 1216.06
  L 478.08 1222.95
  L 493.38 1229.39
  L 508.90 1235.40
  L 524.53 1240.92
  L 540.38 1246.00
  L 550.58 1249.00
  L 560.86 1251.82
  L 571.22 1254.44
  L 581.65 1256.87
  L 592.12 1259.11
  L 602.65 1261.15
  L 613.15 1262.98
  L 623.72 1264.61
  L 634.33 1266.05
  L 644.99 1267.29
  L 655.61 1268.32
  L 666.29 1269.16
  L 677.02 1269.80
  L 687.80 1270.24
  L 698.53 1270.47
  L 709.30 1270.51
  L 714.22 1270.36
  L 714.88 1270.14
  L 715.77 1269.61
  L 716.52 1268.88
  L 717.72 1266.73
  L 718.53 1263.68
  L 718.95 1259.75
  L 719.02 1258.66
  L 719.34 1252.73
  L 719.41 1247.59
  L 719.24 1243.18
  L 718.84 1239.39
  L 718.20 1236.36
  L 717.32 1234.05
  L 716.23 1232.50
  L 715.58 1231.97
  L 714.84 1231.63
  L 714.00 1231.50
  L 697.29 1230.92
  L 680.64 1229.83
  L 664.06 1228.24
  L 647.57 1226.14
  L 631.23 1223.54
  L 614.99 1220.45
  L 598.87 1216.86
  L 582.87 1212.76
  L 567.07 1208.19
  L 551.42 1203.12
  L 536.02 1197.59
  L 520.80 1191.57
  L 505.78 1185.08
  L 490.95 1178.11
  L 476.42 1170.70
  L 462.09 1162.81
  L 450.57 1156.04
  L 439.28 1149.02
  L 428.15 1141.72
  L 417.25 1134.18
  L 406.51 1126.35
  L 396.01 1118.29
  L 385.68 1109.94
  L 375.61 1101.37
  L 365.74 1092.55
  L 356.13 1083.51
  L 346.72 1074.20
  L 337.57 1064.69
  L 328.67 1054.96
  L 320.04 1045.04
  L 311.62 1034.86
  L 303.48 1024.49
  L 293.08 1010.42
  L 283.18 996.04
  L 273.73 981.30
  L 264.79 966.27
  L 256.34 950.93
  L 248.42 935.34
  L 241.03 919.51
  L 234.16 903.46
  L 227.81 887.12
  L 222.01 870.58
  L 216.75 853.86
  L 212.06 836.97
  L 207.93 819.97
  L 204.37 802.84
  L 201.37 785.57
  L 198.94 768.20
  L 197.10 750.79
  L 195.82 733.30
  L 195.13 715.83
  L 195.02 698.32
  L 195.49 680.86
  L 196.53 663.38
  L 198.15 645.98
  L 200.35 628.58
  L 203.11 611.32
  L 206.45 594.08
  L 210.35 576.99
  L 214.83 559.95
  L 219.85 543.14
  L 225.44 526.41
  L 231.57 509.89
  L 238.27 493.47
  L 244.27 479.98
  L 250.67 466.68
  L 257.49 453.50
  L 264.69 440.53
  L 272.32 427.69
  L 280.31 415.09
  L 288.72 402.64
  L 297.48 390.45
  L 306.62 378.45
  L 316.11 366.73
  L 325.92 355.27
  L 336.06 344.10
  L 346.55 333.18
  L 357.34 322.57
  L 368.42 312.25
  L 379.80 302.26
  L 391.45 292.59
  L 403.36 283.25
  L 415.54 274.25
  L 427.96 265.59
  L 440.58 257.32
  L 453.43 249.41
  L 466.51 241.87
  L 479.79 234.70
  L 493.21 227.94
  L 506.83 221.57
  L 520.54 215.63
  L 534.42 210.09
  L 548.37 204.99
  L 562.48 200.29
  L 576.63 196.03
  L 590.91 192.19
  L 604.02 189.05
  L 617.17 186.24
  L 630.48 183.75
  L 643.82 181.60
  L 657.21 179.78
  L 670.63 178.31
  L 684.06 177.17
  L 697.51 176.37
  L 711.03 175.91
  L 724.54 175.79
  L 738.05 176.01
  L 751.53 176.56
  L 764.99 177.46
  L 778.42 178.70
  L 791.80 180.27
  L 805.14 182.18
  L 818.38 184.42
  L 831.56 186.99
  L 844.68 189.90
  L 857.71 193.14
  L 870.61 196.69
  L 883.42 200.58
  L 896.13 204.79
  L 908.74 209.34
  L 921.18 214.18
  L 933.50 219.35
  L 945.60 224.80
  L 957.57 230.56
  L 969.40 236.64
  L 981.09 243.04
  L 992.53 249.69
  L 1003.83 256.66
  L 1012.59 262.34
  L 1021.24 268.19
  L 1029.76 274.20
  L 1038.17 280.38
  L 1046.46 286.71
  L 1054.62 293.20
  L 1062.65 299.85
  L 1070.55 306.65
  L 1078.32 313.60
  L 1085.95 320.69
  L 1093.44 327.94
  L 1100.79 335.32
  L 1108.00 342.85
  L 1115.05 350.51
  L 1121.96 358.32
  L 1128.72 366.25
  L 1135.27 374.27
  L 1141.67 382.41
  L 1147.92 390.68
  L 1154.00 399.07
  L 1159.88 407.55
  L 1165.60 416.14
  L 1171.16 424.84
  L 1176.54 433.66
  L 1181.70 442.51
  L 1186.70 451.47
  L 1191.51 460.53
  L 1196.15 469.69
  L 1200.57 478.89
  L 1204.82 488.18
  L 1208.88 497.57
  L 1212.75 507.05
  L 1217.32 518.98
  L 1221.60 530.97
  L 1225.60 543.11
  L 1229.30 555.31
  L 1232.71 567.56
  L 1235.81 579.84
  L 1238.63 592.27
  L 1241.15 604.72
  L 1243.37 617.27
  L 1245.29 629.84
  L 1246.90 642.43
  L 1248.21 655.03
  L 1249.23 667.70
  L 1249.93 680.37
  L 1250.34 693.04
  L 1250.43 705.70
  L 1250.23 718.42
  L 1249.72 731.12
  L 1248.90 743.80
  L 1247.78 756.44
  L 1246.36 769.05
  L 1244.64 781.61
  L 1242.61 794.13
  L 1240.29 806.59
  L 1237.67 819.00
  L 1234.75 831.34
  L 1231.53 843.61
  L 1228.02 855.81
  L 1224.22 867.88
  L 1220.14 879.87
  L 1215.77 891.76
  L 1211.10 903.56
  L 1206.51 914.44
  L 1201.66 925.23
  L 1196.57 935.92
  L 1191.23 946.52
  L 1185.67 956.95
  L 1179.87 967.27
  L 1173.83 977.48
  L 1167.55 987.58
  L 1161.06 997.50
  L 1154.33 1007.30
  L 1147.43 1016.89
  L 1140.29 1026.36
  L 1132.92 1035.69
  L 1125.32 1044.89
  L 1117.55 1053.86
  L 1109.56 1062.70
  L 1109.27 1063.16
  L 1109.18 1063.70
  L 1109.37 1065.10
  L 1109.87 1066.57
  L 1110.69 1068.16
  L 1111.78 1069.75
  L 1114.72 1072.91
  L 1118.28 1075.67
  L 1122.00 1077.66
  L 1123.77 1078.31
  L 1125.49 1078.71
  L 1127.03 1078.85
  L 1128.47 1078.74
  L 1129.70 1078.40
  L 1130.81 1077.79
  L 1131.71 1076.97
  L 1144.09 1062.35
  L 1155.91 1047.40
  L 1167.25 1032.04
  L 1178.00 1016.39
  L 1188.28 1000.30
  L 1197.96 983.95
  L 1207.11 967.24
  L 1215.66 950.29
  L 1222.64 935.29
  L 1229.16 920.13
  L 1235.26 904.73
  L 1240.89 889.18
  L 1246.07 873.45
  L 1250.79 857.59
  L 1255.03 841.62
  L 1258.80 825.55
  L 1262.12 809.31
  L 1264.95 792.98
  L 1267.31 776.58
  L 1269.19 760.12
  L 1270.59 743.61
  L 1271.50 727.06
  L 1271.94 710.49
  L 1271.89 693.90
  L 1271.36 677.36
  L 1270.35 660.83
  L 1268.85 644.32
  L 1266.87 627.83
  L 1264.42 611.42
  L 1261.48 595.06
  L 1258.08 578.86
  L 1254.20 562.72
  L 1249.86 546.71
  L 1245.04 530.79
  L 1239.78 515.07
  L 1234.04 499.45
  L 1227.88 484.06
  L 1221.25 468.80
  L 1214.19 453.77
  L 1206.67 438.88
  L 1201.62 429.46
  L 1196.39 420.15
  L 1190.97 410.94
  L 1185.38 401.83
  L 1179.57 392.78
  L 1173.58 383.84
  L 1167.42 375.01
  L 1161.09 366.30
  L 1154.55 357.67
  L 1147.85 349.15
  L 1140.99 340.77
  L 1133.96 332.52
  L 1126.75 324.36
  L 1119.38 316.34
  L 1111.86 308.47
  L 1104.19 300.73
  L 1096.38 293.15
  L 1088.42 285.71
  L 1080.33 278.43
  L 1072.10 271.30
  L 1063.74 264.33
  L 1055.25 257.52
  L 1046.63 250.88
  L 1037.89 244.40
  L 1029.06 238.11
  L 1020.11 232.00
  L 1011.05 226.05
  L 1001.88 220.29
  L 992.64 214.73
  L 983.31 209.35
  L 973.87 204.16
  L 964.34 199.15
  L 948.48 191.33
  L 932.42 184.03
  L 916.09 177.22
  L 899.59 170.94
  L 882.83 165.15
  L 865.92 159.89
  L 848.79 155.15
  L 831.54 150.95
  L 814.12 147.28
  L 796.61 144.15
  L 779.02 141.58
  L 761.38 139.55
  L 743.65 138.07
  L 725.88 137.13
  L 708.10 136.75
  L 690.33 136.92
  L 672.59 137.64
  L 654.89 138.91
  L 637.23 140.73
  L 619.63 143.11
  L 602.14 146.02
  L 584.74 149.48
  L 567.53 153.47
  L 550.44 158.00
  L 533.55 163.05
  L 516.80 168.64
  L 500.30 174.74
  L 483.97 181.36
  L 467.95 188.46
  L 452.12 196.08
  L 436.60 204.18
  L 421.30 212.79
  L 408.67 220.38
  L 396.28 228.27
  L 384.06 236.50
  L 372.08 245.01
  L 360.34 253.80
  L 348.87 262.88
  L 337.58 272.28
  L 326.56 281.94
  L 315.76 291.92
  L 305.24 302.14
  L 295.01 312.62
  L 285.06 323.33
  L 275.37 334.33
  L 265.97 345.56
  L 256.87 357.01
  L 248.08 368.69
  L 239.58 380.61
  L 231.38 392.74
  L 223.51 405.07
  L 215.96 417.60
  L 208.73 430.32
  L 201.84 443.21
  L 195.27 456.29
  L 189.05 469.53
  L 183.19 482.88
  L 177.68 496.38
  L 172.51 510.04
  L 167.69 523.83
  L 163.24 537.70
  L 159.15 551.69
  L 155.41 565.81
  L 152.04 580.05
  L 148.36 597.87
  L 145.26 615.84
  L 142.74 633.86
  L 140.79 652.02
  L 139.44 670.15
  L 138.67 688.39
  L 138.48 706.62
  L 138.88 724.93"
/>
<path stroke="#e18a8d" vector-effect="non-scaling-stroke" d="
  M 421.29 446.24
  L 561.86 935.60
  L 562.06 935.91
  L 562.39 936.01
  L 566.00 936.05
  L 909.69 936.23
  L 926.82 936.11
  L 956.71 936.05
  L 956.72 936.05
  L 957.06 935.90
  L 957.20 935.55
  L 956.92 921.11
  L 956.77 920.70
  L 956.36 920.56
  L 612.00 920.47
  L 611.60 920.35
  L 611.41 920.04
  L 607.44 905.62
  L 607.43 905.56
  L 607.55 905.17
  L 607.92 905.00
  L 960.53 905.00
  L 960.85 904.91
  L 961.04 904.61
  L 1061.76 548.12
  L 1061.67 547.56
  L 1061.19 547.26
  L 1061.10 547.25
  L 603.22 547.25
  L 603.17 547.25
  L 602.88 547.43
  L 602.82 547.77
  L 621.21 617.95
  L 621.48 618.35
  L 621.93 618.50
  L 992.06 618.50
  L 992.46 618.64
  L 992.48 619.06
  L 969.82 695.07
  L 969.60 695.38
  L 969.25 695.50
  L 642.01 695.50
  L 641.97 695.50
  L 641.75 695.64
  L 641.70 695.90
  L 650.12 728.15
  L 655.92 749.15
  L 661.96 770.08
  L 662.30 770.33
  L 952.61 770.04
  L 953.20 770.24
  L 953.25 770.87
  L 935.62 837.14
  L 935.38 837.53
  L 934.94 837.66
  L 579.56 837.79
  L 579.13 837.66
  L 578.91 837.29
  L 499.25 520.25
  L 493.87 499.66
  L 485.49 469.08
  L 476.91 437.78
  L 471.03 415.45
  L 470.80 415.06
  L 470.38 414.94
  L 315.71 415.51
  L 314.44 415.51
  L 311.65 415.54
  L 309.77 415.77
  L 308.26 416.27
  L 307.21 417.04
  L 306.65 417.81
  L 306.25 418.79
  L 305.97 421.25
  L 306.25 439.64
  L 306.39 441.58
  L 306.74 443.15
  L 307.32 444.36
  L 308.19 445.30
  L 309.40 445.90
  L 311.00 446.10
  L 394.57 445.73
  L 420.68 445.77
  L 421.07 445.88
  L 421.29 446.24"
/>
<path stroke="#e18a8d" vector-effect="non-scaling-stroke" d="
  M 610.98 986.66
  L 610.77 982.48
  L 610.16 978.33
  L 609.14 974.27
  L 607.73 970.32
  L 605.94 966.54
  L 603.79 962.94
  L 601.29 959.58
  L 598.48 956.47
  L 595.37 953.66
  L 592.01 951.16
  L 588.41 949.01
  L 584.63 947.22
  L 580.68 945.81
  L 576.62 944.79
  L 572.47 944.18
  L 568.29 943.97
  L 564.11 944.18
  L 559.96 944.79
  L 555.90 945.81
  L 551.95 947.22
  L 548.17 949.01
  L 544.57 951.16
  L 541.21 953.66
  L 538.10 956.47
  L 535.29 959.58
  L 532.79 962.94
  L 530.64 966.54
  L 528.85 970.32
  L 527.44 974.27
  L 526.42 978.33
  L 525.81 982.48
  L 525.60 986.66
  L 525.81 990.84
  L 526.42 994.99
  L 527.44 999.05
  L 528.85 1003.00
  L 530.64 1006.78
  L 532.79 1010.38
  L 535.29 1013.74
  L 538.10 1016.85
  L 541.21 1019.66
  L 544.57 1022.16
  L 548.17 1024.31
  L 551.95 1026.10
  L 555.90 1027.51
  L 559.96 1028.53
  L 564.11 1029.14
  L 568.29 1029.35
  L 572.47 1029.14
  L 576.62 1028.53
  L 580.68 1027.51
  L 584.63 1026.10
  L 588.41 1024.31
  L 592.01 1022.16
  L 595.37 1019.66
  L 598.48 1016.85
  L 601.29 1013.74
  L 603.79 1010.38
  L 605.94 1006.78
  L 607.73 1003.00
  L 609.14 999.05
  L 610.16 994.99
  L 610.77 990.84
  L 610.98 986.66"
/>
<path stroke="#e18a8d" vector-effect="non-scaling-stroke" d="
  M 964.73 986.66
  L 964.52 982.48
  L 963.91 978.33
  L 962.89 974.27
  L 961.48 970.32
  L 959.69 966.54
  L 957.54 962.94
  L 955.04 959.58
  L 952.23 956.47
  L 949.12 953.66
  L 945.76 951.16
  L 942.16 949.01
  L 938.38 947.22
  L 934.43 945.81
  L 930.37 944.79
  L 926.22 944.18
  L 922.04 943.97
  L 917.86 944.18
  L 913.71 944.79
  L 909.65 945.81
  L 905.70 947.22
  L 901.92 949.01
  L 898.32 951.16
  L 894.96 953.66
  L 891.85 956.47
  L 889.04 959.58
  L 886.54 962.94
  L 884.39 966.54
  L 882.60 970.32
  L 881.19 974.27
  L 880.17 978.33
  L 879.56 982.48
  L 879.35 986.66
  L 879.56 990.84
  L 880.17 994.99
  L 881.19 999.05
  L 882.60 1003.00
  L 884.39 1006.78
  L 886.54 1010.38
  L 889.04 1013.74
  L 891.85 1016.85
  L 894.96 1019.66
  L 898.32 1022.16
  L 901.92 1024.31
  L 905.70 1026.10
  L 909.65 1027.51
  L 913.71 1028.53
  L 917.86 1029.14
  L 922.04 1029.35
  L 926.22 1029.14
  L 930.37 1028.53
  L 934.43 1027.51
  L 938.38 1026.10
  L 942.16 1024.31
  L 945.76 1022.16
  L 949.12 1019.66
  L 952.23 1016.85
  L 955.04 1013.74
  L 957.54 1010.38
  L 959.69 1006.78
  L 961.48 1003.00
  L 962.89 999.05
  L 963.91 994.99
  L 964.52 990.84
  L 964.73 986.66"
/>
</g>
<g fill="#c2151b">
<path d="
  M 185.81 255.69
  L 189.41 258.49
  L 192.94 261.98
  L 195.94 265.69
  L 198.33 269.50
  L 199.92 273.09
  L 200.77 276.55
  L 200.87 279.76
  L 200.23 282.68
  L 199.29 284.70
  L 197.89 286.63
  L 188.74 297.37
  L 179.84 308.27
  L 171.17 319.35
  L 162.76 330.60
  L 154.56 342.04
  L 146.62 353.64
  L 138.93 365.40
  L 131.50 377.30
  L 124.34 389.33
  L 117.45 401.50
  L 110.82 413.80
  L 104.46 426.24
  L 98.37 438.80
  L 92.55 451.48
  L 87.01 464.29
  L 81.75 477.21
  L 76.79 490.17
  L 72.10 503.24
  L 67.71 516.41
  L 63.59 529.68
  L 59.78 542.97
  L 56.26 556.36
  L 53.03 569.83
  L 50.09 583.37
  L 47.46 596.94
  L 45.12 610.57
  L 43.09 624.17
  L 41.36 637.83
  L 39.93 651.55
  L 38.79 665.32
  L 37.97 679.04
  L 37.44 692.81
  L 37.19 708.96
  L 37.33 725.00
  L 37.84 741.04
  L 38.74 756.96
  L 40.02 772.91
  L 41.69 788.74
  L 43.73 804.54
  L 46.15 820.20
  L 48.96 835.83
  L 52.13 851.32
  L 55.69 866.75
  L 59.61 882.03
  L 63.93 897.27
  L 68.60 912.35
  L 73.66 927.35
  L 79.07 942.17
  L 86.74 961.48
  L 95.01 980.45
  L 103.91 999.21
  L 113.39 1017.62
  L 123.51 1035.80
  L 134.18 1053.61
  L 145.46 1071.12
  L 157.27 1088.22
  L 169.66 1104.99
  L 182.57 1121.34
  L 196.05 1137.32
  L 210.02 1152.85
  L 224.50 1167.96
  L 239.45 1182.58
  L 254.86 1196.72
  L 270.70 1210.37
  L 286.99 1223.52
  L 303.70 1236.16
  L 320.81 1248.27
  L 338.30 1259.83
  L 356.16 1270.84
  L 374.38 1281.29
  L 392.86 1291.11
  L 411.66 1300.36
  L 430.72 1309.00
  L 450.09 1317.05
  L 469.65 1324.45
  L 489.47 1331.24
  L 509.42 1337.37
  L 529.61 1342.88
  L 549.91 1347.74
  L 570.42 1351.95
  L 586.65 1354.81
  L 603.00 1357.26
  L 619.36 1359.30
  L 635.82 1360.93
  L 652.25 1362.14
  L 668.76 1362.94
  L 685.26 1363.33
  L 701.83 1363.30
  L 718.36 1362.86
  L 734.95 1362.01
  L 751.49 1360.75
  L 768.08 1359.06
  L 784.56 1356.98
  L 801.08 1354.47
  L 817.53 1351.57
  L 834.00 1348.24
  L 845.31 1345.70
  L 856.55 1342.97
  L 867.82 1340.01
  L 879.01 1336.85
  L 890.15 1333.49
  L 901.22 1329.93
  L 912.20 1326.17
  L 923.10 1322.23
  L 934.01 1318.06
  L 944.82 1313.70
  L 955.55 1309.15
  L 966.18 1304.41
  L 976.76 1299.46
  L 987.25 1294.33
  L 997.64 1289.01
  L 1007.92 1283.52
  L 1018.15 1277.81
  L 1028.28 1271.93
  L 1038.29 1265.87
  L 1048.18 1259.64
  L 1058.00 1253.21
  L 1067.70 1246.60
  L 1077.28 1239.83
  L 1086.73 1232.89
  L 1096.07 1225.78
  L 1105.27 1218.50
  L 1114.35 1211.07
  L 1123.29 1203.47
  L 1132.09 1195.72
  L 1140.76 1187.82
  L 1149.28 1179.76
  L 1157.66 1171.55
  L 1165.87 1163.22
  L 1173.94 1154.74
  L 1181.85 1146.11
  L 1189.62 1137.35
  L 1197.22 1128.45
  L 1204.67 1119.41
  L 1211.96 1110.24
  L 1219.08 1100.94
  L 1226.02 1091.55
  L 1232.79 1082.03
  L 1239.39 1072.38
  L 1245.82 1062.62
  L 1252.05 1052.78
  L 1258.10 1042.82
  L 1263.98 1032.75
  L 1269.69 1022.56
  L 1275.16 1012.35
  L 1280.46 1002.03
  L 1285.58 991.60
  L 1290.51 981.07
  L 1295.23 970.51
  L 1299.76 959.86
  L 1304.11 949.11
  L 1308.26 938.26
  L 1312.19 927.38
  L 1315.94 916.42
  L 1319.46 905.46
  L 1322.78 894.43
  L 1325.92 883.30
  L 1328.85 872.10
  L 1331.56 860.92
  L 1334.07 849.66
  L 1336.38 838.37
  L 1338.48 827.06
  L 1340.39 815.73
  L 1342.09 804.39
  L 1343.60 792.98
  L 1344.90 781.55
  L 1346.01 770.12
  L 1346.91 758.67
  L 1347.61 747.21
  L 1348.11 735.74
  L 1348.41 724.27
  L 1348.50 712.80
  L 1348.39 701.34
  L 1348.09 689.89
  L 1347.58 678.45
  L 1346.86 667.03
  L 1345.95 655.62
  L 1344.84 644.24
  L 1343.53 632.88
  L 1342.01 621.54
  L 1340.30 610.23
  L 1338.39 598.95
  L 1336.27 587.70
  L 1333.96 576.49
  L 1331.45 565.34
  L 1328.75 554.22
  L 1325.84 543.15
  L 1322.74 532.13
  L 1319.45 521.20
  L 1315.97 510.32
  L 1312.29 499.49
  L 1308.42 488.72
  L 1300.38 468.06
  L 1291.61 447.64
  L 1282.83 428.95
  L 1273.43 410.54
  L 1263.39 392.34
  L 1252.75 374.45
  L 1241.51 356.86
  L 1229.71 339.63
  L 1217.36 322.78
  L 1204.48 306.32
  L 1191.10 290.30
  L 1177.21 274.71
  L 1162.84 259.58
  L 1148.01 244.93
  L 1132.78 230.83
  L 1117.11 217.24
  L 1101.11 204.24
  L 1084.70 191.79
  L 1065.70 178.33
  L 1046.42 165.62
  L 1026.86 153.64
  L 1007.03 142.40
  L 986.92 131.90
  L 966.53 122.14
  L 945.87 113.12
  L 924.92 104.84
  L 924.92 104.84
  L 924.92 104.84
  L 924.92 104.84
  L 912.97 100.48
  L 900.92 96.37
  L 888.79 92.49
  L 876.57 88.84
  L 864.26 85.43
  L 851.86 82.26
  L 839.37 79.32
  L 826.80 76.62
  L 814.13 74.16
  L 801.38 71.93
  L 788.54 69.93
  L 775.61 68.18
  L 762.59 66.66
  L 749.48 65.37
  L 736.28 64.32
  L 723.00 63.51
  L 722.95 63.51
  L 722.05 63.25
  L 721.22 62.67
  L 720.39 61.71
  L 719.65 60.50
  L 718.20 56.85
  L 717.16 52.47
  L 716.27 45.70
  L 715.75 38.77
  L 715.63 32.02
  L 715.90 25.48
  L 716.56 19.38
  L 717.61 13.66
  L 719.01 8.46
  L 720.76 3.76
  L 721.45 2.53
  L 722.31 1.70
  L 723.66 1.13
  L 725.43 0.97
  L 745.70 1.28
  L 765.85 2.16
  L 786.00 3.60
  L 806.01 5.59
  L 826.05 8.16
  L 845.93 11.28
  L 865.76 14.96
  L 885.41 19.18
  L 906.20 24.29
  L 926.77 29.99
  L 947.20 36.32
  L 967.39 43.24
  L 987.45 50.78
  L 1007.23 58.91
  L 1026.81 67.64
  L 1046.10 76.94
  L 1065.12 86.82
  L 1083.82 97.24
  L 1102.27 108.26
  L 1120.37 119.81
  L 1138.13 131.89
  L 1155.51 144.48
  L 1172.50 157.58
  L 1189.10 171.18
  L 1205.29 185.26
  L 1221.05 199.81
  L 1236.39 214.83
  L 1251.28 230.30
  L 1265.70 246.21
  L 1279.65 262.55
  L 1293.07 279.23
  L 1306.00 296.33
  L 1318.41 313.78
  L 1330.31 331.62
  L 1341.64 349.76
  L 1352.44 368.26
  L 1362.65 387.00
  L 1372.32 406.08
  L 1381.40 425.40
  L 1389.92 445.04
  L 1397.30 463.48
  L 1404.19 482.19
  L 1410.54 501.03
  L 1416.39 520.12
  L 1421.68 539.28
  L 1426.46 558.66
  L 1430.70 578.13
  L 1434.42 597.81
  L 1436.88 612.80
  L 1439.01 627.82
  L 1440.83 642.87
  L 1442.32 657.93
  L 1443.50 673.08
  L 1444.37 688.23
  L 1444.91 703.39
  L 1445.13 718.55
  L 1445.04 733.78
  L 1444.62 749.00
  L 1443.88 764.19
  L 1442.83 779.37
  L 1441.46 794.52
  L 1439.76 809.64
  L 1437.76 824.71
  L 1435.43 839.74
  L 1432.79 854.74
  L 1429.84 869.68
  L 1426.57 884.55
  L 1422.99 899.37
  L 1419.11 914.06
  L 1414.91 928.68
  L 1410.41 943.21
  L 1405.61 957.66
  L 1400.51 971.95
  L 1395.12 986.14
  L 1389.42 1000.23
  L 1383.42 1014.22
  L 1377.13 1028.06
  L 1370.54 1041.79
  L 1363.70 1055.31
  L 1356.56 1068.70
  L 1348.47 1083.10
  L 1340.08 1097.27
  L 1327.74 1116.84
  L 1314.81 1135.94
  L 1301.24 1154.66
  L 1287.11 1172.89
  L 1272.34 1190.73
  L 1257.02 1208.05
  L 1241.13 1224.90
  L 1224.72 1241.21
  L 1207.76 1257.02
  L 1190.31 1272.27
  L 1172.34 1286.99
  L 1153.91 1301.11
  L 1135.03 1314.65
  L 1115.74 1327.57
  L 1096.05 1339.86
  L 1075.98 1351.52
  L 1055.55 1362.52
  L 1034.78 1372.87
  L 1013.68 1382.55
  L 992.28 1391.56
  L 970.61 1399.87
  L 948.67 1407.48
  L 926.57 1414.37
  L 904.23 1420.55
  L 881.77 1425.99
  L 859.10 1430.71
  L 836.36 1434.69
  L 813.44 1437.95
  L 790.54 1440.44
  L 767.50 1442.21
  L 744.49 1443.22
  L 721.37 1443.49
  L 699.23 1443.04
  L 677.03 1441.90
  L 654.10 1440.02
  L 631.38 1437.46
  L 608.89 1434.22
  L 586.62 1430.31
  L 564.57 1425.72
  L 542.74 1420.46
  L 521.13 1414.52
  L 499.75 1407.91
  L 499.75 1407.91
  L 499.75 1407.91
  L 499.75 1407.91
  L 499.75 1407.91
  L 499.75 1407.91
  L 480.99 1401.48
  L 462.41 1394.53
  L 444.01 1387.05
  L 425.77 1379.03
  L 407.71 1370.49
  L 389.82 1361.42
  L 372.11 1351.81
  L 354.57 1341.68
  L 343.21 1334.77
  L 331.99 1327.64
  L 320.90 1320.31
  L 309.95 1312.76
  L 299.10 1304.98
  L 288.39 1297.00
  L 277.83 1288.82
  L 267.43 1280.44
  L 257.14 1271.84
  L 247.01 1263.05
  L 237.05 1254.08
  L 227.25 1244.92
  L 217.59 1235.55
  L 208.10 1226.00
  L 198.79 1216.27
  L 189.66 1206.38
  L 180.73 1196.34
  L 171.99 1186.14
  L 163.44 1175.78
  L 155.08 1165.26
  L 146.91 1154.60
  L 138.95 1143.78
  L 131.19 1132.82
  L 123.63 1121.72
  L 116.32 1110.54
  L 109.22 1099.23
  L 102.33 1087.79
  L 95.65 1076.23
  L 89.23 1064.59
  L 83.02 1052.84
  L 77.03 1040.97
  L 71.27 1028.99
  L 64.11 1013.23
  L 57.34 997.34
  L 50.93 981.23
  L 44.92 965.00
  L 37.73 943.81
  L 31.22 922.44
  L 25.35 900.82
  L 20.16 879.04
  L 15.65 857.10
  L 11.83 835.03
  L 8.68 812.86
  L 6.23 790.60
  L 4.46 768.24
  L 3.38 745.83
  L 2.99 723.37
  L 3.29 700.88
  L 4.28 678.38
  L 5.97 655.88
  L 8.33 633.49
  L 11.39 611.13
  L 13.31 599.23
  L 15.43 587.37
  L 17.75 575.58
  L 20.27 563.83
  L 23.00 552.09
  L 25.93 540.40
  L 29.06 528.77
  L 32.38 517.21
  L 35.92 505.64
  L 39.65 494.14
  L 43.58 482.71
  L 47.70 471.36
  L 52.03 460.03
  L 56.56 448.78
  L 61.27 437.61
  L 66.16 426.52
  L 71.26 415.49
  L 76.54 404.54
  L 82.01 393.69
  L 87.66 382.92
  L 93.52 372.20
  L 99.56 361.58
  L 105.77 351.06
  L 112.17 340.64
  L 118.74 330.32
  L 125.48 320.10
  L 132.40 309.99
  L 139.49 299.99
  L 146.75 290.10
  L 154.18 280.33
  L 161.78 270.66
  L 169.54 261.12
  L 170.58 259.85
  L 173.11 256.86
  L 174.96 255.05
  L 176.70 253.88
  L 178.39 253.31
  L 179.99 253.24
  L 181.77 253.61
  L 183.67 254.41
  L 185.81 255.69
  Z"
/>
<path d="
  M 420.68 445.77
  L 394.57 445.73
  L 311.00 446.10
  L 309.40 445.90
  L 308.19 445.30
  L 307.32 444.36
  L 306.74 443.15
  L 306.39 441.58
  L 306.25 439.64
  L 305.97 421.25
  L 306.25 418.79
  L 306.65 417.81
  L 307.21 417.04
  L 308.26 416.27
  L 309.77 415.77
  L 311.65 415.54
  L 314.44 415.51
  L 315.71 415.51
  L 470.38 414.94
  L 470.80 415.06
  L 471.03 415.45
  L 476.91 437.78
  L 485.49 469.08
  L 493.87 499.66
  L 499.25 520.25
  L 578.91 837.29
  L 579.13 837.66
  L 579.56 837.79
  L 934.94 837.66
  L 935.38 837.53
  L 935.62 837.14
  L 953.25 770.87
  L 953.20 770.24
  L 952.61 770.04
  L 662.30 770.33
  L 661.96 770.08
  L 655.92 749.15
  L 650.12 728.15
  L 641.70 695.90
  L 641.75 695.64
  L 641.97 695.50
  L 641.97 695.50
  L 642.01 695.50
  L 969.25 695.50
  L 969.60 695.38
  L 969.82 695.07
  L 992.48 619.06
  L 992.46 618.64
  L 992.06 618.50
  L 621.93 618.50
  L 621.48 618.35
  L 621.21 617.95
  L 602.82 547.77
  L 602.88 547.43
  L 603.17 547.25
  L 603.17 547.25
  L 603.22 547.25
  L 1061.10 547.25
  L 1061.19 547.26
  L 1061.67 547.56
  L 1061.76 548.12
  L 961.04 904.61
  L 960.85 904.91
  L 960.53 905.00
  L 607.92 905.00
  L 607.55 905.17
  L 607.43 905.56
  L 607.43 905.56
  L 607.44 905.62
  L 611.41 920.04
  L 611.60 920.35
  L 612.00 920.47
  L 956.36 920.56
  L 956.77 920.70
  L 956.92 921.11
  L 957.20 935.55
  L 957.06 935.90
  L 956.72 936.05
  L 956.71 936.05
  L 926.82 936.11
  L 909.69 936.23
  L 566.00 936.05
  L 562.39 936.01
  L 562.06 935.91
  L 561.86 935.60
  L 421.29 446.24
  L 421.07 445.88
  L 420.68 445.77
  Z"
/>
<circle cx="568.29" cy="986.66" r="42.69"/>
<circle cx="922.04" cy="986.66" r="42.69"/>
</g>
<path fill="#4d4d4d" d="
  M 709.30 1270.51
  L 698.53 1270.47
  L 687.80 1270.24
  L 677.02 1269.80
  L 666.29 1269.16
  L 655.61 1268.32
  L 644.99 1267.29
  L 634.33 1266.05
  L 623.72 1264.61
  L 613.15 1262.98
  L 602.65 1261.15
  L 592.12 1259.11
  L 581.65 1256.87
  L 571.22 1254.44
  L 560.86 1251.82
  L 550.58 1249.00
  L 540.38 1246.00
  L 524.53 1240.92
  L 508.90 1235.40
  L 493.38 1229.39
  L 478.08 1222.95
  L 462.97 1216.06
  L 448.10 1208.74
  L 433.39 1200.96
  L 418.93 1192.76
  L 404.67 1184.11
  L 390.69 1175.06
  L 376.99 1165.61
  L 363.58 1155.77
  L 350.44 1145.52
  L 337.60 1134.89
  L 325.09 1123.90
  L 312.91 1112.55
  L 301.07 1100.85
  L 289.57 1088.81
  L 278.42 1076.44
  L 267.64 1063.74
  L 257.26 1050.76
  L 247.26 1037.48
  L 237.63 1023.89
  L 228.41 1010.01
  L 219.61 995.90
  L 211.22 981.52
  L 203.29 966.95
  L 195.77 952.13
  L 188.72 937.15
  L 182.10 921.93
  L 175.95 906.57
  L 170.24 890.99
  L 163.65 870.97
  L 157.78 850.62
  L 152.68 830.02
  L 148.37 809.33
  L 144.82 788.40
  L 142.07 767.42
  L 140.08 746.19
  L 138.88 724.93
  L 138.48 706.62
  L 138.67 688.39
  L 139.44 670.15
  L 140.79 652.02
  L 142.74 633.86
  L 145.26 615.84
  L 148.36 597.87
  L 152.04 580.05
  L 155.41 565.81
  L 159.15 551.69
  L 163.24 537.70
  L 167.69 523.83
  L 172.51 510.04
  L 177.68 496.38
  L 183.19 482.88
  L 189.05 469.53
  L 195.27 456.29
  L 201.84 443.21
  L 208.73 430.32
  L 215.96 417.60
  L 223.51 405.07
  L 231.38 392.74
  L 239.58 380.61
  L 248.08 368.69
  L 256.87 357.01
  L 265.97 345.56
  L 275.37 334.33
  L 285.06 323.33
  L 295.01 312.62
  L 305.24 302.14
  L 315.76 291.92
  L 326.56 281.94
  L 337.58 272.28
  L 348.87 262.88
  L 360.34 253.80
  L 372.08 245.01
  L 384.06 236.50
  L 396.28 228.27
  L 408.67 220.38
  L 421.30 212.79
  L 436.60 204.18
  L 452.12 196.08
  L 467.95 188.46
  L 483.97 181.36
  L 500.30 174.74
  L 516.80 168.64
  L 533.55 163.05
  L 550.44 158.00
  L 567.53 153.47
  L 584.74 149.48
  L 602.14 146.02
  L 619.63 143.11
  L 637.23 140.73
  L 654.89 138.91
  L 672.59 137.64
  L 690.33 136.92
  L 708.10 136.75
  L 725.88 137.13
  L 743.65 138.07
  L 761.38 139.55
  L 779.02 141.58
  L 796.61 144.15
  L 814.12 147.28
  L 831.54 150.95
  L 848.79 155.15
  L 865.92 159.89
  L 882.83 165.15
  L 899.59 170.94
  L 916.09 177.22
  L 932.42 184.03
  L 948.48 191.33
  L 964.34 199.15
  L 973.87 204.16
  L 983.31 209.35
  L 992.64 214.73
  L 1001.88 220.29
  L 1011.05 226.05
  L 1020.11 232.00
  L 1029.06 238.11
  L 1037.89 244.40
  L 1046.63 250.88
  L 1055.25 257.52
  L 1063.74 264.33
  L 1072.10 271.30
  L 1080.33 278.43
  L 1088.42 285.71
  L 1096.38 293.15
  L 1104.19 300.73
  L 1111.86 308.47
  L 1119.38 316.34
  L 1126.75 324.36
  L 1133.96 332.52
  L 1140.99 340.77
  L 1147.85 349.15
  L 1154.55 357.67
  L 1161.09 366.30
  L 1167.42 375.01
  L 1173.58 383.84
  L 1179.57 392.78
  L 1185.38 401.83
  L 1190.97 410.94
  L 1196.39 420.15
  L 1201.62 429.46
  L 1206.67 438.88
  L 1214.19 453.77
  L 1221.25 468.80
  L 1227.88 484.06
  L 1234.04 499.45
  L 1239.78 515.07
  L 1245.04 530.79
  L 1249.86 546.71
  L 1254.20 562.72
  L 1258.08 578.86
  L 1261.48 595.06
  L 1264.42 611.42
  L 1266.87 627.83
  L 1268.85 644.32
  L 1270.35 660.83
  L 1271.36 677.36
  L 1271.89 693.90
  L 1271.94 710.49
  L 1271.50 727.06
  L 1270.59 743.61
  L 1269.19 760.12
  L 1267.31 776.58
  L 1264.95 792.98
  L 1262.12 809.31
  L 1258.80 825.55
  L 1255.03 841.62
  L 1250.79 857.59
  L 1246.07 873.45
  L 1240.89 889.18
  L 1235.26 904.73
  L 1229.16 920.13
  L 1222.64 935.29
  L 1215.66 950.29
  L 1207.11 967.24
  L 1197.96 983.95
  L 1188.28 1000.30
  L 1178.00 1016.39
  L 1167.25 1032.04
  L 1155.91 1047.40
  L 1144.09 1062.35
  L 1131.71 1076.97
  L 1130.81 1077.79
  L 1129.70 1078.40
  L 1128.47 1078.74
  L 1127.03 1078.85
  L 1125.49 1078.71
  L 1123.77 1078.31
  L 1122.00 1077.66
  L 1118.28 1075.67
  L 1114.72 1072.91
  L 1111.78 1069.75
  L 1110.69 1068.16
  L 1109.87 1066.57
  L 1109.37 1065.10
  L 1109.18 1063.70
  L 1109.27 1063.16
  L 1109.56 1062.70
  L 1117.55 1053.86
  L 1125.32 1044.89
  L 1132.92 1035.69
  L 1140.29 1026.36
  L 1147.43 1016.89
  L 1154.33 1007.30
  L 1161.06 997.50
  L 1167.55 987.58
  L 1173.83 977.48
  L 1179.87 967.27
  L 1185.67 956.95
  L 1191.23 946.52
  L 1196.57 935.92
  L 1201.66 925.23
  L 1206.51 914.44
  L 1211.10 903.56
  L 1215.77 891.76
  L 1220.14 879.87
  L 1224.22 867.88
  L 1228.02 855.81
  L 1231.53 843.61
  L 1234.75 831.34
  L 1237.67 819.00
  L 1240.29 806.59
  L 1242.61 794.13
  L 1244.64 781.61
  L 1246.36 769.05
  L 1247.78 756.44
  L 1248.90 743.80
  L 1249.72 731.12
  L 1250.23 718.42
  L 1250.43 705.70
  L 1250.34 693.04
  L 1249.93 680.37
  L 1249.23 667.70
  L 1248.21 655.03
  L 1246.90 642.43
  L 1245.29 629.84
  L 1243.37 617.27
  L 1241.15 604.72
  L 1238.63 592.27
  L 1235.81 579.84
  L 1232.71 567.56
  L 1229.30 555.31
  L 1225.60 543.11
  L 1221.60 530.97
  L 1217.32 518.98
  L 1212.75 507.05
  L 1208.88 497.57
  L 1204.82 488.18
  L 1200.57 478.89
  L 1196.15 469.69
  L 1191.51 460.53
  L 1186.70 451.47
  L 1181.70 442.51
  L 1176.54 433.66
  L 1171.16 424.84
  L 1165.60 416.14
  L 1159.88 407.55
  L 1154.00 399.07
  L 1147.92 390.68
  L 1141.67 382.41
  L 1135.27 374.27
  L 1128.72 366.25
  L 1121.96 358.32
  L 1115.05 350.51
  L 1108.00 342.85
  L 1100.79 335.32
  L 1093.44 327.94
  L 1085.95 320.69
  L 1078.32 313.60
  L 1070.55 306.65
  L 1062.65 299.85
  L 1054.62 293.20
  L 1046.46 286.71
  L 1038.17 280.38
  L 1029.76 274.20
  L 1021.24 268.19
  L 1012.59 262.34
  L 1003.83 256.66
  L 992.53 249.69
  L 981.09 243.04
  L 969.40 236.64
  L 957.57 230.56
  L 945.60 224.80
  L 933.50 219.35
  L 921.18 214.18
  L 908.74 209.34
  L 896.13 204.79
  L 883.42 200.58
  L 870.61 196.69
  L 857.71 193.14
  L 844.68 189.90
  L 831.56 186.99
  L 818.38 184.42
  L 805.14 182.18
  L 791.80 180.27
  L 778.42 178.70
  L 764.99 177.46
  L 751.53 176.56
  L 738.05 176.01
  L 724.54 175.79
  L 711.03 175.91
  L 697.51 176.37
  L 684.06 177.17
  L 670.63 178.31
  L 657.21 179.78
  L 643.82 181.60
  L 630.48 183.75
  L 617.17 186.24
  L 604.02 189.05
  L 590.91 192.19
  L 576.63 196.03
  L 562.48 200.29
  L 548.37 204.99
  L 534.42 210.09
  L 520.54 215.63
  L 506.83 221.57
  L 493.21 227.94
  L 479.79 234.70
  L 466.51 241.87
  L 453.43 249.41
  L 440.58 257.32
  L 427.96 265.59
  L 415.54 274.25
  L 403.36 283.25
  L 391.45 292.59
  L 379.80 302.26
  L 368.42 312.25
  L 357.34 322.57
  L 346.55 333.18
  L 336.06 344.10
  L 325.92 355.27
  L 316.11 366.73
  L 306.62 378.45
  L 297.48 390.45
  L 288.72 402.64
  L 280.31 415.09
  L 272.32 427.69
  L 264.69 440.53
  L 257.49 453.50
  L 250.67 466.68
  L 244.27 479.98
  L 238.27 493.47
  L 231.57 509.89
  L 225.44 526.41
  L 219.85 543.14
  L 214.83 559.95
  L 210.35 576.99
  L 206.45 594.08
  L 203.11 611.32
  L 200.35 628.58
  L 198.15 645.98
  L 196.53 663.38
  L 195.49 680.86
  L 195.02 698.32
  L 195.13 715.83
  L 195.82 733.30
  L 197.10 750.79
  L 198.94 768.20
  L 201.37 785.57
  L 204.37 802.84
  L 207.93 819.97
  L 212.06 836.97
  L 216.75 853.86
  L 222.01 870.58
  L 227.81 887.12
  L 234.16 903.46
  L 241.03 919.51
  L 248.42 935.34
  L 256.34 950.93
  L 264.79 966.27
  L 273.73 981.30
  L 283.18 996.04
  L 293.08 1010.42
  L 303.48 1024.49
  L 311.62 1034.86
  L 320.04 1045.04
  L 328.67 1054.96
  L 337.57 1064.69
  L 346.72 1074.20
  L 356.13 1083.51
  L 365.74 1092.55
  L 375.61 1101.37
  L 385.68 1109.94
  L 396.01 1118.29
  L 406.51 1126.35
  L 417.25 1134.18
  L 428.15 1141.72
  L 439.28 1149.02
  L 450.57 1156.04
  L 462.09 1162.81
  L 476.42 1170.70
  L 490.95 1178.11
  L 505.78 1185.08
  L 520.80 1191.57
  L 536.02 1197.59
  L 551.42 1203.12
  L 567.07 1208.19
  L 582.87 1212.76
  L 598.87 1216.86
  L 614.99 1220.45
  L 631.23 1223.54
  L 647.57 1226.14
  L 664.06 1228.24
  L 680.64 1229.83
  L 697.29 1230.92
  L 714.00 1231.50
  L 714.84 1231.63
  L 715.58 1231.97
  L 716.23 1232.49
  L 717.32 1234.05
  L 718.19 1236.35
  L 718.83 1239.38
  L 719.24 1243.18
  L 719.41 1247.63
  L 719.33 1252.77
  L 719.02 1258.66
  L 718.95 1259.75
  L 718.53 1263.68
  L 717.72 1266.73
  L 716.52 1268.88
  L 715.77 1269.61
  L 714.88 1270.14
  L 714.22 1270.36
  L 709.30 1270.51
  Z"
/>
</svg>
