<svg xmlns="http://www.w3.org/2000/svg" width="12" height="10" viewBox="0 0 12 10" fill="none">
  <path fill-rule="evenodd" clip-rule="evenodd" d="M6.65559 1.44501C7.13297 0.967619 7.78045 0.699425 8.45559 0.699425C9.13072 0.699425 9.7782 0.967619 10.2556 1.44501C10.733 1.9224 11.0012 2.56988 11.0012 3.24501C11.0012 3.92014 10.733 4.56762 10.2556 5.04501L9.60059 5.70001L6.00059 9.30001L2.40058 5.70001L1.74558 5.04501C1.26819 4.56762 1 3.92014 1 3.24501C1 2.56988 1.26819 1.9224 1.74558 1.44501C2.22297 0.967619 2.87045 0.699425 3.54558 0.699425C4.22072 0.699425 4.86819 0.967619 5.34558 1.44501L6.00059 2.10001L6.65559 1.44501Z" stroke="#151515" stroke-linecap="round" stroke-linejoin="bevel"/>
</svg>
