<svg fill="#000000" viewBox="0 0 32 32" style="fill-rule:evenodd;clip-rule:evenodd;stroke-linejoin:round;stroke-miterlimit:2;" version="1.1" xml:space="preserve" xmlns="http://www.w3.org/2000/svg" xmlns:serif="http://www.serif.com/" xmlns:xlink="http://www.w3.org/1999/xlink"><g id="SVGRepo_bgCarrier" stroke-width="0"></g><g id="SVGRepo_tracerCarrier" stroke-linecap="round" stroke-linejoin="round"></g><g id="SVGRepo_iconCarrier"> <g transform="matrix(1,0,0,1,-433,-288)"> <g transform="matrix(1.33333,0,0,1.33333,424.333,277)"> <circle cx="15.5" cy="28.5" r="1.5" style="fill:transparent;"></circle> </g> <g transform="matrix(1.33333,0,0,1.33333,434.333,277)"> <circle cx="15.5" cy="28.5" r="1.5" style="fill:transparent;"></circle> </g> <g transform="matrix(0.69088,0.261706,-0.408352,1.07801,262.033,-138.071)"> <rect height="7" style="fill:transparent;" width="6" x="445" y="289"></rect> </g> <g transform="matrix(0.833333,0,0,1,73.1667,1)"> <rect height="7" style="fill:transparent;" width="6" x="445" y="289"></rect> </g> <g transform="matrix(1.16667,0,0,1,427.167,288)"> <path d="M28.409,8.526C28.55,7.925 28.442,7.281 28.118,6.786C27.794,6.291 27.29,6 26.756,6C21.587,6 9.286,6 9.286,6L11.857,17L25.119,17C25.892,17 26.57,16.396 26.773,15.526C27.191,13.737 27.903,10.692 28.409,8.526Z" style="fill:transparent;"></path> </g> <path d="M445,312C443.344,312 442,313.344 442,315C442,316.656 443.344,318 445,318C446.656,318 448,316.656 448,315C448,313.344 446.656,312 445,312ZM455,312C453.344,312 452,313.344 452,315C452,316.656 453.344,318 455,318C456.656,318 458,316.656 458,315C458,313.344 456.656,312 455,312ZM445,314C445.552,314 446,314.448 446,315C446,315.552 445.552,316 445,316C444.448,316 444,315.552 444,315C444,314.448 444.448,314 445,314ZM455,314C455.552,314 456,314.448 456,315C456,315.552 455.552,316 455,316C454.448,316 454,315.552 454,315C454,314.448 454.448,314 455,314ZM450,290.968L450.526,289.58C450.722,289.064 451.299,288.803 451.815,288.999L455.961,290.569C456.477,290.765 456.737,291.342 456.541,291.859L456.109,293L458.382,293C459.317,293 460.198,293.436 460.766,294.179C461.333,294.922 461.522,295.887 461.276,296.789L459.367,303.789C459.011,305.095 457.825,306 456.472,306L442.281,306L442.591,307.243C442.703,307.688 443.103,308 443.562,308L458,308C458.552,308 459,308.448 459,309C459,309.552 458.552,310 458,310L443.562,310C442.185,310 440.985,309.063 440.651,307.728L440.032,305.253L436.279,292L435,292C434.448,292 434,291.552 434,291C434,290.448 434.448,290 435,290C435,290 435.706,290 436.279,290C437.14,290 437.904,290.551 438.177,291.368L438.721,293L443,293L443,290C443,289.448 443.448,289 444,289L449,289C449.552,289 450,289.448 450,290L450,290.968ZM459.346,296.263L457.437,303.263C457.319,303.698 456.923,304 456.472,304C456.472,304 441.764,304 441.764,304C441.764,304 439.309,295 439.309,295C439.309,295 458.381,295 458.381,295C458.693,295 458.987,295.145 459.176,295.393C459.365,295.641 459.428,295.962 459.346,296.263ZM448,293L445,293L445,291L448,291L448,293ZM451.369,293L452.042,291.224L454.317,292.085L453.97,293L451.369,293Z" style="fill:#202020;"></path> </g> </g></svg>
