<svg xmlns="http://www.w3.org/2000/svg" width="49" height="16" viewBox="0 0 49 16" fill="none">
  <g clip-path="url(#clip0_17306_37652)">
    <path d="M21.233 15.7692H17.2637L19.7464 0.280762H23.7155L21.233 15.7692Z" fill="#00579F"/>
    <path d="M35.6218 0.659404C34.8389 0.346018 33.5971 0 32.0616 0C28.1417 0 25.3814 2.10895 25.3645 5.12412C25.3319 7.3487 27.3408 8.58429 28.8433 9.32604C30.379 10.084 30.901 10.5787 30.901 11.2543C30.8854 12.2919 29.6601 12.7702 28.5173 12.7702C26.9325 12.7702 26.0834 12.5236 24.793 11.9464L24.2703 11.6989L23.7148 15.1757C24.6458 15.6036 26.361 15.9834 28.1417 16C32.3067 16 35.0181 13.9237 35.0503 10.7105C35.0661 8.94739 34.0053 7.59639 31.7184 6.49242C30.3301 5.78374 29.4799 5.30589 29.4799 4.58079C29.4962 3.9216 30.199 3.24643 31.7662 3.24643C33.0566 3.21336 34.0047 3.52631 34.7229 3.83948L35.082 4.00394L35.6218 0.659404Z" fill="#00579F"/>
    <path d="M40.899 10.2822C41.2259 9.3924 42.4838 5.94865 42.4838 5.94865C42.4673 5.98172 42.81 5.04244 43.006 4.46582L43.2834 5.80039C43.2834 5.80039 44.0351 9.50781 44.1983 10.2822C43.578 10.2822 41.683 10.2822 40.899 10.2822ZM45.7987 0.280762H42.7284C41.7816 0.280762 41.0623 0.560641 40.6538 1.56584L34.7578 15.769H38.9227C38.9227 15.769 39.6084 13.8573 39.7558 13.4456C40.2127 13.4456 44.2643 13.4456 44.8521 13.4456C44.9661 13.9894 45.3257 15.769 45.3257 15.769H49.0009L45.7987 0.280762Z" fill="#00579F"/>
    <path d="M13.9484 0.280762L10.0611 10.8424L9.63632 8.70036C8.91764 6.22875 6.66371 3.5434 4.14844 2.20816L7.70906 15.7528H11.9065L18.1457 0.280762H13.9484Z" fill="#00579F"/>
    <path d="M6.45162 0.280762H0.0653342L0 0.59371C4.9817 1.87901 8.28099 4.97718 9.63651 8.70102L8.24821 1.58271C8.01965 0.593491 7.31725 0.313392 6.45162 0.280762Z" fill="#F4A622"/>
  </g>
  <defs>
    <clipPath id="clip0_17306_37652">
      <rect width="49" height="16" fill="white"/>
    </clipPath>
  </defs>
</svg>
